<svg width="107" height="99" viewBox="0 0 107 99" fill="none" xmlns="http://www.w3.org/2000/svg">
<path d="M101.622 13.4304H82.0174V0.954834H74.8885V13.4304H32.115V0.954834H24.9861V13.4304H5.38161C3.96409 13.4321 2.6051 13.9959 1.60276 14.9983C0.600415 16.0006 0.0365744 17.3596 0.0349236 18.7771V93.6307C0.0365744 95.0483 0.600415 96.4072 1.60276 97.4096C2.6051 98.4119 3.96409 98.9758 5.38161 98.9774H101.622C103.039 98.9758 104.398 98.4119 105.401 97.4096C106.403 96.4072 106.967 95.0483 106.969 93.6307V18.7771C106.967 17.3596 106.403 16.0006 105.401 14.9983C104.398 13.9959 103.039 13.4321 101.622 13.4304ZM99.8397 91.8485H7.16384V20.5594H24.9861V29.4705H32.115V20.5594H74.8885V29.4705H82.0174V20.5594H99.8397V91.8485Z" fill="#D8601E"/>
<path d="M50.6941 61.8566L38.5783 49.7408L33.5375 54.7818L50.6941 71.9382L78.6784 43.9539L73.6374 38.9131L50.6941 61.8566Z" fill="#D8601E"/>
</svg>
