<svg width="33" height="31" viewBox="0 0 33 31" fill="none" xmlns="http://www.w3.org/2000/svg">
<path d="M17.1481 0.672355L20.7519 8.89189C21.0276 9.52107 21.6247 9.95212 22.3101 10.0137L31.0892 10.8009C32.0825 10.9454 32.4788 12.1636 31.7585 12.8651L25.1454 18.4207C24.61 18.8704 24.3663 19.5773 24.5136 20.26L26.4359 29.2586C26.6046 30.2466 25.5685 31.0016 24.6796 30.5331L17.0169 26.0458C16.4279 25.7004 15.6997 25.7004 15.1107 26.0458L7.44801 30.5304C6.5618 30.9963 5.52298 30.2439 5.69166 29.256L7.61401 20.2573C7.75859 19.5746 7.51763 18.8678 6.98215 18.418L0.366367 12.8678C-0.351168 12.169 0.0450827 10.9481 1.03571 10.8035L9.81481 10.0164C10.5002 9.9548 11.0973 9.52375 11.373 8.89456L14.9768 0.675033C15.4239 -0.224564 16.7037 -0.224564 17.1481 0.672355Z" fill="#FDD835"/>
<path d="M16.8857 9.38452L16.2753 3.3283C16.2512 2.99096 16.1816 2.41264 16.7224 2.41264C17.1508 2.41264 17.3837 3.30421 17.3837 3.30421L19.215 8.16632C19.9058 10.0164 19.622 10.6509 18.9553 11.0257C18.1896 11.4541 17.0598 11.1195 16.8857 9.38452Z" fill="#FFFF8D"/>
<path d="M24.4386 17.8825L29.6916 13.7834C29.9513 13.5666 30.4199 13.2212 30.0451 12.8276C29.7479 12.517 28.9447 12.9642 28.9447 12.9642L24.3476 14.7607C22.9768 15.2346 22.0665 15.936 21.9862 16.8196C21.8818 17.9976 22.9393 18.9053 24.4386 17.8825Z" fill="#F4B400"/>
</svg>
