<svg width="32" height="32" viewBox="0 0 32 32" fill="none" xmlns="http://www.w3.org/2000/svg">
<path d="M31.5253 15.7626C31.5253 24.4681 24.4681 31.5253 15.7626 31.5253C7.05715 31.5253 0 24.4681 0 15.7626C0 7.05715 7.05715 0 15.7626 0C24.4681 0 31.5253 7.05715 31.5253 15.7626ZM13.9394 24.1088L25.6343 12.414C26.0314 12.0169 26.0314 11.3729 25.6343 10.9758L24.1961 9.53767C23.799 9.14049 23.1551 9.14049 22.7579 9.53767L13.2203 19.0752L8.7674 14.6223C8.37028 14.2252 7.72637 14.2252 7.32919 14.6223L5.89103 16.0605C5.49392 16.4576 5.49392 17.1015 5.89103 17.4986L12.5012 24.1088C12.8984 24.506 13.5422 24.506 13.9394 24.1088Z" fill="white"/>
</svg>
